<?xml version="1.0" standalone="no"?>
<!DOCTYPE svg PUBLIC "-//W3C//DTD SVG 20010904//EN"
 "http://www.w3.org/TR/2001/REC-SVG-20010904/DTD/svg10.dtd">
<svg version="1.0" xmlns="http://www.w3.org/2000/svg"
 width="1023.000000pt" height="682.000000pt" viewBox="0 0 1023.000000 682.000000"
 preserveAspectRatio="xMidYMid meet">

<g transform="translate(0.000000,682.000000) scale(0.100000,-0.100000)"
fill="#000000" stroke="none">
<path d="M0 3410 l0 -3410 5115 0 5115 0 0 3410 0 3410 -5115 0 -5115 0 0
-3410z m6492 960 c191 -18 327 -52 705 -179 353 -118 578 -186 763 -231 52
-13 97 -26 100 -29 3 -4 16 -7 30 -8 33 -1 153 -23 159 -29 9 -9 -67 -3 -158
12 -351 58 -642 126 -966 225 -427 130 -513 144 -890 143 -205 0 -314 -5 -405
-17 -332 -46 -662 -123 -1060 -248 -185 -59 -564 -191 -574 -201 -6 -4 5 -8
25 -8 18 0 239 -5 490 -11 936 -22 1601 23 2066 140 270 68 497 93 655 72 79
-11 153 -29 146 -36 -2 -2 -28 3 -58 11 -78 20 -256 18 -392 -6 -62 -10 -196
-42 -298 -70 -300 -83 -511 -123 -810 -155 -554 -59 -1371 -61 -2245 -8 -367
23 -654 22 -805 0 -284 -43 -516 -116 -798 -248 -46 -22 -88 -37 -94 -33 -6 4
-8 3 -5 -3 3 -5 -13 -20 -36 -33 -23 -13 -86 -53 -140 -89 -54 -36 -111 -73
-127 -82 -16 -9 -38 -22 -47 -30 -10 -7 -5 1 11 18 15 17 34 29 41 27 7 -3 16
-1 20 5 3 6 0 11 -7 11 -7 0 3 11 22 24 19 13 41 21 48 19 7 -3 10 0 7 8 -5
15 31 41 205 147 60 37 117 65 133 65 15 0 23 3 17 7 -17 11 196 105 357 159
363 121 596 143 1215 113 l277 -14 223 95 c881 377 1574 523 2200 467z m1801
-487 c-7 -2 -19 -2 -25 0 -7 3 -2 5 12 5 14 0 19 -2 13 -5z m-1110 -330 c-7
-2 -19 -2 -25 0 -7 3 -2 5 12 5 14 0 19 -2 13 -5z m154 1 c-3 -3 -12 -4 -19
-1 -8 3 -5 6 6 6 11 1 17 -2 13 -5z m-81 -42 c0 -4 4 -80 9 -170 4 -96 12
-161 17 -160 5 2 35 64 65 138 30 74 59 140 65 147 5 7 7 17 3 23 -3 5 -1 10
6 10 18 0 5 -58 -45 -208 -24 -72 -40 -134 -35 -137 4 -3 25 13 46 37 31 35
108 119 180 198 11 12 15 12 25 1 10 -11 10 -12 1 -7 -7 4 -13 3 -13 -3 0 -10
-110 -158 -162 -219 -15 -18 -28 -37 -28 -43 0 -15 27 -4 146 61 107 58 174
84 161 62 -4 -5 -67 -47 -139 -92 -73 -46 -135 -84 -137 -86 -17 -15 31 -13
174 6 l167 23 -6 36 c-5 32 -4 33 5 11 5 -13 8 -34 5 -46 -6 -23 -15 -26 -288
-86 -56 -12 -61 -24 -15 -33 119 -23 277 -59 288 -66 28 -17 0 -18 -106 -3
-180 24 -225 27 -225 18 0 -5 19 -20 43 -33 98 -56 241 -154 230 -158 -7 -3
-76 28 -153 68 -77 40 -143 69 -147 66 -3 -4 7 -24 24 -45 53 -66 173 -224
173 -228 0 -21 -66 43 -192 184 -52 59 -77 62 -54 7 29 -68 86 -268 79 -278
-7 -11 -31 39 -95 201 -22 56 -44 102 -48 102 -4 0 -10 -69 -14 -152 -4 -84
-10 -166 -13 -183 l-7 -30 -7 30 c-4 17 -7 75 -8 130 -1 111 -11 205 -20 205
-3 0 -21 -39 -40 -88 -18 -48 -49 -120 -67 -159 -18 -40 -28 -73 -22 -73 6 0
9 -3 5 -6 -8 -9 -126 48 -157 75 l-25 23 30 -20 c41 -27 116 -64 120 -60 2 2
24 69 49 148 24 80 48 153 51 163 16 39 -18 11 -116 -98 -57 -63 -112 -117
-121 -120 -19 -7 -55 13 -63 35 -4 8 6 3 21 -10 l26 -25 15 22 c8 11 54 72
103 134 49 62 86 117 84 121 -3 5 -29 -4 -57 -20 -109 -61 -223 -120 -243
-126 -16 -5 -23 0 -33 20 -6 15 -9 29 -6 32 3 3 5 1 5 -4 1 -39 21 -32 156 52
164 103 147 91 140 102 -3 6 -24 6 -53 1 -104 -19 -266 -37 -281 -32 -20 8 41
26 197 58 124 25 139 30 129 41 -5 4 -287 71 -323 76 -6 1 -12 11 -13 22 0 11
2 16 6 10 5 -8 298 -56 335 -54 22 1 -1 22 -70 65 -161 98 -193 120 -193 133
0 8 59 -17 150 -64 82 -43 152 -75 156 -72 3 4 -21 40 -53 80 -33 40 -80 101
-105 135 l-45 61 -22 -21 c-11 -12 -21 -19 -21 -16 0 3 19 23 42 44 23 22 36
32 29 23 -11 -15 -1 -30 85 -125 134 -149 133 -148 139 -141 4 3 -16 77 -44
163 -53 162 -58 185 -41 185 6 0 9 -3 8 -7 -1 -5 10 -33 24 -63 13 -30 42 -99
62 -152 21 -54 42 -98 46 -98 13 0 20 59 20 175 0 114 7 181 19 170 3 -4 6
-10 7 -13z m41 12 c-3 -3 -12 -4 -19 -1 -8 3 -5 6 6 6 11 1 17 -2 13 -5z
m-124 -11 c-7 -2 -19 -2 -25 0 -7 3 -2 5 12 5 14 0 19 -2 13 -5z m212 -3 c13
-6 5 -7 -25 -3 -25 3 -47 7 -49 9 -9 8 55 2 74 -6z m105 0 c8 -5 11 -10 5 -10
-5 0 -17 5 -25 10 -8 5 -10 10 -5 10 6 0 17 -5 25 -10z m1050 -25 c0 -5 -5 -3
-10 5 -5 8 -10 20 -10 25 0 6 5 3 10 -5 5 -8 10 -19 10 -25z m-1530 21 c0 -2
-7 -7 -16 -10 -8 -3 -12 -2 -9 4 6 10 25 14 25 6z m113 -3 c-7 -2 -19 -2 -25
0 -7 3 -2 5 12 5 14 0 19 -2 13 -5z m-101 -33 c-42 -26 -56 -26 -17 0 17 11
35 20 40 20 6 0 -5 -9 -23 -20z m468 0 c19 -11 31 -19 25 -19 -5 0 -26 8 -45
19 -19 11 -30 19 -25 19 6 0 26 -8 45 -19z m-551 -3 c-2 -1 -13 -9 -24 -17
-19 -14 -19 -14 -6 3 7 9 18 17 24 17 6 0 8 -1 6 -3z m-49 -30 c0 -2 -17 -19
-37 -38 l-38 -34 34 38 c33 34 41 42 41 34z m671 -14 c13 -17 13 -17 -6 -3
-11 8 -22 16 -24 17 -2 2 0 3 6 3 6 0 17 -8 24 -17z m89 -83 c6 -11 8 -20 6
-20 -3 0 -10 9 -16 20 -6 11 -8 20 -6 20 3 0 10 -9 16 -20z m50 -65 c14 -19
14 -19 -2 -6 -10 7 -18 18 -18 24 0 6 1 8 3 6 1 -2 9 -13 17 -24z m-902 -5
c-7 -10 -14 -17 -17 -15 -4 4 18 35 25 35 2 0 -1 -9 -8 -20z m962 -24 c0 -12
-5 -7 -19 24 -11 24 -11 24 3 6 9 -11 16 -24 16 -30z m-3700 -2 c22 -20 40
-41 40 -46 0 -6 -17 5 -39 25 -50 45 -90 54 -138 30 -55 -27 -78 -73 -78 -158
1 -84 20 -125 69 -149 61 -29 141 -13 166 34 6 11 15 20 21 20 15 0 -27 -51
-59 -72 -35 -23 -122 -24 -168 -2 -37 18 -80 80 -90 132 -8 42 12 119 41 158
32 42 80 64 142 64 47 0 58 -4 93 -36z m327 21 c21 -9 46 -23 57 -33 49 -44
71 -157 42 -225 -16 -38 -76 -94 -112 -103 -43 -11 -120 2 -152 24 -94 68 -95
246 -2 312 57 41 110 49 167 25z m-1633 -18 c106 -61 114 -234 13 -311 -132
-101 -313 35 -268 201 31 114 155 168 255 110z m216 -127 c3 -80 9 -153 14
-163 17 -37 95 -49 145 -22 41 21 51 61 51 206 0 87 4 129 11 129 18 0 8 -289
-11 -318 -24 -36 -75 -55 -136 -50 -64 5 -99 32 -114 87 -11 41 -14 264 -3
275 4 4 14 5 23 4 12 -3 16 -28 20 -148z m531 135 c21 -8 49 -58 49 -90 0 -27
-42 -75 -66 -75 -23 0 -16 -17 34 -88 68 -93 67 -92 38 -92 -20 0 -37 18 -86
85 -41 56 -68 85 -81 85 -17 0 -19 -8 -19 -85 0 -84 0 -85 -25 -85 l-25 0 0
174 c0 173 0 175 23 180 26 5 136 0 158 -9z m1198 -125 c35 -76 67 -138 70
-135 3 2 33 65 66 139 55 126 62 136 85 134 l25 -3 3 -177 2 -178 -25 0 -25 0
0 147 c0 83 -4 143 -9 138 -4 -6 -37 -72 -71 -147 -35 -76 -66 -138 -69 -138
-3 0 -35 65 -71 143 l-65 144 -5 -146 c-7 -202 -24 -183 -27 29 -1 91 0 171 2
178 2 6 15 12 27 12 20 0 32 -20 87 -140z m510 130 c55 -15 81 -47 81 -96 0
-35 -5 -47 -31 -68 -25 -21 -41 -26 -85 -26 l-54 0 0 -80 c0 -79 0 -80 -25
-80 l-25 0 0 174 c0 158 2 175 18 179 31 8 87 7 121 -3z m335 -162 c42 -95 76
-176 76 -180 0 -5 -12 -8 -28 -8 -24 0 -30 7 -50 60 l-24 60 -72 0 -73 0 -26
-60 c-14 -33 -31 -60 -37 -60 -6 0 -10 4 -8 8 51 124 155 352 159 352 3 0 40
-78 83 -172z m-3155 123 c-11 -22 -26 -44 -33 -50 -7 -6 -21 -29 -31 -51 -10
-22 -22 -40 -27 -40 -4 0 -8 -27 -8 -60 0 -33 -3 -60 -7 -60 -15 0 -1 114 17
139 9 14 36 56 60 94 47 75 60 87 29 28z m3476 -98 l110 -137 6 140 5 139 1
-178 c0 -174 0 -177 -19 -161 -10 10 -16 24 -13 31 2 8 1 12 -4 9 -5 -3 -20 9
-34 27 -14 17 -36 44 -49 59 -13 14 -43 51 -67 82 -24 31 -48 53 -53 50 -5 -3
-8 -64 -7 -135 0 -72 -2 -133 -5 -136 -3 -4 -6 73 -6 170 0 136 3 177 13 177
7 0 62 -62 122 -137z m269 112 c-6 -19 -5 -19 7 -2 13 16 15 16 26 -2 8 -13 9
-22 3 -26 -6 -3 -10 -11 -10 -17 0 -6 7 -5 17 3 15 13 15 12 2 -8 -7 -12 -14
-21 -15 -20 0 1 -15 23 -32 49 -29 42 -30 47 -12 45 15 -1 19 -6 14 -22z m266
21 c0 -2 -8 -10 -17 -17 -16 -13 -17 -12 -4 4 13 16 21 21 21 13z m372 -38
c-7 -7 -12 -8 -12 -2 0 14 12 26 19 19 2 -3 -1 -11 -7 -17z m977 -43 c0 -5 -6
1 -14 15 -8 14 -14 30 -14 35 0 6 6 -1 14 -15 8 -14 14 -29 14 -35z m816 -16
c-62 -122 -230 -235 -455 -307 -122 -38 -230 -62 -230 -51 0 5 8 9 18 10 10 0
12 3 5 6 -27 10 -11 21 55 37 301 74 514 187 598 319 34 53 39 46 9 -14z
m-6855 35 c0 -8 -19 -13 -24 -6 -3 5 1 9 9 9 8 0 15 -2 15 -3z m5041 -21 c-12
-20 -14 -14 -5 12 4 9 9 14 11 11 3 -2 0 -13 -6 -23z m-5085 -25 c-18 -26 -22
-17 -5 14 6 11 13 17 16 15 3 -3 -2 -16 -11 -29z m4544 -34 c-11 -18 -11 -18
-6 -1 8 24 -4 44 -15 26 -6 -10 -8 -7 -6 9 1 22 2 22 20 3 16 -15 17 -22 7
-37z m108 26 c-7 -10 -14 -17 -17 -15 -4 4 18 35 25 35 2 0 -1 -9 -8 -20z
m419 -12 c-3 -8 -6 -5 -6 6 -1 11 2 17 5 13 3 -3 4 -12 1 -19z m-4474 -75 c-6
-65 -13 -68 -12 -6 1 28 -2 57 -7 64 -6 11 -5 12 7 2 12 -9 15 -26 12 -60z
m3991 40 c17 -28 17 -28 -2 -7 -17 20 -20 20 -30 5 -10 -13 -10 -12 -2 7 13
28 14 28 34 -5z m1553 5 c-3 -8 -6 -5 -6 6 -1 11 2 17 5 13 3 -3 4 -12 1 -19z
m-1120 -10 c-3 -8 -6 -5 -6 6 -1 11 2 17 5 13 3 -3 4 -12 1 -19z m1090 -85
c-2 -16 -4 -3 -4 27 0 30 2 43 4 28 2 -16 2 -40 0 -55z m40 0 c-2 -16 -4 -5
-4 22 0 28 2 40 4 28 2 -13 2 -35 0 -50z m-1575 -20 c3 -40 1 -70 -4 -67 -4 3
-8 37 -8 76 0 90 7 85 12 -9z m25 0 c-2 -16 -4 -3 -4 27 0 30 2 43 4 28 2 -16
2 -40 0 -55z m455 -5 c2 -27 0 -48 -4 -48 -5 0 -7 28 -7 63 1 67 6 60 11 -15z
m-5085 40 c-3 -8 -6 -5 -6 6 -1 11 2 17 5 13 3 -3 4 -12 1 -19z m5040 -35 c-3
-10 -5 -4 -5 12 0 17 2 24 5 18 2 -7 2 -21 0 -30z m-4420 -30 c-3 -10 -5 -4
-5 12 0 17 2 24 5 18 2 -7 2 -21 0 -30z m5560 -20 c-3 -10 -5 -4 -5 12 0 17 2
24 5 18 2 -7 2 -21 0 -30z m-1198 -147 c24 -69 15 -67 -11 2 -10 26 -21 76
-23 112 l-4 65 9 -60 c5 -33 18 -87 29 -119z m1158 122 c-2 -13 -4 -5 -4 17
-1 22 1 32 4 23 2 -10 2 -28 0 -40z m-1510 10 c-3 -7 -5 -2 -5 12 0 14 2 19 5
13 2 -7 2 -19 0 -25z m-3977 2 c0 -5 -2 -10 -4 -10 -3 0 -8 5 -11 10 -3 6 -1
10 4 10 6 0 11 -4 11 -10z m4397 -32 c-3 -8 -6 -5 -6 6 -1 11 2 17 5 13 3 -3
4 -12 1 -19z m1120 -20 c-3 -8 -6 -5 -6 6 -1 11 2 17 5 13 3 -3 4 -12 1 -19z
m-40 -10 c-3 -8 -6 -5 -6 6 -1 11 2 17 5 13 3 -3 4 -12 1 -19z m-1030 -30 c-3
-7 -5 -2 -5 12 0 14 2 19 5 13 2 -7 2 -19 0 -25z m985 -90 c-8 -8 -9 -4 -5 13
4 13 8 18 11 10 2 -7 -1 -18 -6 -23z m-1419 12 c207 -15 340 -33 322 -42 -9
-5 -117 -3 -258 6 -133 9 -327 21 -432 26 -104 6 -191 13 -194 16 -8 8 433 3
562 -6z m447 -30 c6 -11 8 -20 6 -20 -3 0 -10 9 -16 20 -6 11 -8 20 -6 20 3 0
10 -9 16 -20z m986 -28 c-17 -16 -18 -16 -5 5 7 12 15 20 18 17 3 -2 -3 -12
-13 -22z m-77 -39 c-17 -21 -39 -42 -48 -47 -9 -5 4 11 28 37 54 56 66 62 20
10z m41 -17 c0 -2 -8 -10 -17 -17 -16 -13 -17 -12 -4 4 13 16 21 21 21 13z
m-860 -41 c13 -14 21 -25 18 -25 -2 0 -15 11 -28 25 -13 14 -21 25 -18 25 2 0
15 -11 28 -25z m810 -9 c0 -2 -8 -10 -17 -17 -16 -13 -17 -12 -4 4 13 16 21
21 21 13z m-124 -51 c-11 -8 -25 -15 -30 -15 -6 1 0 7 14 15 32 19 40 18 16 0z
m-556 -41 c0 -2 -9 0 -20 6 -11 6 -20 13 -20 16 0 2 9 0 20 -6 11 -6 20 -13
20 -16z m600 22 c0 -2 -7 -7 -16 -10 -8 -3 -12 -2 -9 4 6 10 25 14 25 6z
m-160 -36 c-8 -5 -22 -9 -30 -9 -10 0 -8 3 5 9 27 12 43 12 25 0z m-211 -16
c8 -7 -54 -2 -79 6 -17 6 -9 7 25 3 28 -3 52 -7 54 -9z m141 2 c0 -2 -15 -6
-34 -8 -19 -2 -32 0 -30 4 5 8 64 12 64 4z m-147 -43 c-7 -2 -21 -2 -30 0 -10
3 -4 5 12 5 17 0 24 -2 18 -5z m130 0 c-7 -2 -19 -2 -25 0 -7 3 -2 5 12 5 14
0 19 -2 13 -5z"/>
<path d="M7988 3933 c7 -3 16 -2 19 1 4 3 -2 6 -13 5 -11 0 -14 -3 -6 -6z"/>
<path d="M2115 3490 c-3 -6 1 -7 9 -4 18 7 21 14 7 14 -6 0 -13 -4 -16 -10z"/>
<path d="M2004 3425 c-18 -14 -18 -14 4 -8 12 3 22 9 22 14 0 12 -3 11 -26 -6z"/>
<path d="M1913 3369 c-58 -41 -54 -46 7 -8 28 17 50 33 50 35 0 9 -18 1 -57
-27z"/>
<path d="M1820 3299 c-22 -18 -22 -19 -3 -10 12 6 25 16 28 21 9 15 3 12 -25
-11z"/>
<path d="M7175 3146 c-154 -69 -118 -305 49 -323 60 -7 89 1 132 39 67 59 81
132 41 209 -41 77 -141 111 -222 75z m161 -27 c39 -24 67 -79 66 -130 -2 -105
-90 -173 -194 -150 -115 26 -156 182 -69 265 52 49 132 56 197 15z"/>
<path d="M7225 3130 c-4 -6 5 -10 19 -10 14 0 26 5 26 10 0 6 -9 10 -19 10
-11 0 -23 -4 -26 -10z"/>
<path d="M7226 3014 c-9 -8 -16 -18 -16 -22 1 -38 63 -42 68 -5 4 30 -31 49
-52 27z"/>
<path d="M7107 3013 c-11 -10 -8 -43 3 -43 6 0 10 11 10 25 0 26 -2 29 -13 18z"/>
<path d="M7373 2990 c1 -11 5 -20 9 -20 4 0 8 9 8 20 0 11 -4 20 -9 20 -6 0
-9 -9 -8 -20z"/>
<path d="M7220 2856 c0 -10 28 -13 41 -5 10 6 7 9 -13 9 -16 0 -28 -2 -28 -4z"/>
<path d="M4281 3248 c-45 -24 -65 -64 -69 -137 -7 -119 34 -191 110 -191 54 0
76 14 99 63 35 78 17 213 -34 255 -23 19 -79 24 -106 10z"/>
<path d="M2610 3247 c-73 -36 -88 -221 -24 -296 32 -39 80 -49 127 -26 46 22
67 73 67 166 0 75 -16 121 -54 151 -25 21 -80 23 -116 5z"/>
<path d="M3377 3243 c-4 -3 -7 -39 -7 -80 0 -72 0 -73 25 -73 85 0 129 91 69
139 -26 20 -74 28 -87 14z"/>
<path d="M5127 3243 c-4 -3 -7 -39 -7 -79 0 -70 1 -72 28 -77 57 -11 102 48
82 108 -14 41 -80 72 -103 48z"/>
<path d="M5415 3126 c-15 -36 -26 -69 -24 -73 4 -8 97 -13 111 -6 7 3 -38 119
-52 136 -4 5 -20 -21 -35 -57z"/>
<path d="M6150 3214 c0 -8 5 -12 10 -9 6 4 8 11 5 16 -9 14 -15 11 -15 -7z"/>
</g>
</svg>
